<svg width="610" height="530" xmlns="http://www.w3.org/2000/svg" xml:space="preserve" version="1.1">

 <g>
  <title>Layer 1</title>
  <rect id="svg_1" fill="#CCD1D9" height="106.5" width="127.81" y="418.80266" x="285.02605"/>
  <path id="svg_3" fill="#4A89DC" d="m523.65405,163.37066l-349.44,-0.172c-11.715,0 -78.288,244.606 -80.757,256.071l0,21.306c-2.437,11.435 5.124,20.807 16.839,20.807l477.26,0.188c11.716,0 19.275,-9.372 16.839,-20.807l0.438,-17.588c-2.454,-11.466 -69.464,-259.805 -81.179,-259.805l0,0z"/>
  <path id="svg_4" fill="#5D9CEC" d="m523.65405,142.08066l-349.44,-0.187c-11.715,0 -23.321,9.372 -25.773,20.837l-54.984,256.539c-2.437,11.466 5.124,20.837 16.839,20.837l477.26,0.156c11.716,0 19.275,-9.371 16.839,-20.806l-54.984,-256.554c-2.452,-11.45 -14.042,-20.822 -25.757,-20.822l0,0z"/>
  <path id="svg_5" fill="#4A89DC" d="m571.18605,264.55866l-80.662,-0.188l-5.312,-45.923l76.134,0.172l-4.562,-21.291l-74.04,-0.188l-6.404,-55.249l-21.432,0l6.389,55.249l-60.746,0l-2.219,-55.249l-21.306,0l2.202,55.249l-60.809,0l2.124,-55.249l-21.321,0l-2.109,55.249l-61.075,0l6.154,-55.249l-21.431,0l-6.154,55.249l-73.539,0l-4.561,21.306l75.743,0l-5.108,45.923l-80.476,0l-4.561,21.306l82.663,0l-5.92,53.25l-88.162,0l-4.577,21.298l90.363,0l-8.888,79.881l21.431,0l8.888,-79.881l72.978,0l-3.046,79.881l21.306,0l3.062,-79.881l73.555,0l3.203,79.881l21.32,0l-3.201,-79.881l73.103,0l9.247,79.881l21.431,0l-9.247,-79.881l90.129,0.188l-4.561,-21.314l-88.036,-0.171l-6.154,-53.25l82.771,0.172l-4.577,-21.29zm-279.492,74.368l-71.416,0l5.92,-53.25l67.542,0l-2.046,53.25zm2.858,-74.555l-65.98,0l5.108,-45.923l62.621,0l-1.749,45.923zm23.056,-45.924l62.48,0l1.844,45.923l-66.074,0l1.75,-45.923zm-4.593,120.479l2.031,-53.25l67.729,0l2.124,53.25l-71.884,0zm88.38,-120.479l62.355,0l5.326,45.923l-65.839,0l-1.842,-45.923zm4.842,120.479l-2.141,-53.25l67.449,0l6.17,53.25l-71.478,0z"/>
  <g id="svg_6"/>
  <g id="svg_7"/>
  <g id="svg_8"/>
  <g id="svg_9"/>
  <g id="svg_10"/>
  <g id="svg_11"/>
  <g id="svg_12"/>
  <g id="svg_13"/>
  <g id="svg_14"/>
  <g id="svg_15"/>
  <g id="svg_16"/>
  <g id="svg_17"/>
  <g id="svg_18"/>
  <g id="svg_19"/>
  <g id="svg_20"/>
  <g stroke="null">
   <path stroke="null" fill="#f7a52f" d="m169.4292,317.25904c-55.84046,0 -101.27535,-44.38937 -101.27535,-98.95348s45.43575,-98.95264 101.27535,-98.95264c55.84046,0 101.28827,44.38937 101.28827,98.95348s-45.44695,98.95264 -101.28827,98.95264z"/>
   <path stroke="null" fill="#f7a52f" d="m169.4292,110.37605c-61.01008,0 -110.46951,48.32306 -110.46951,107.93035c0,59.61318 49.45943,107.93624 110.46951,107.93624s110.46951,-48.32222 110.46951,-107.93624c0.00086,-59.60813 -49.45857,-107.93035 -110.46951,-107.93035zm65.11647,171.55466c-17.39231,16.99409 -40.52031,26.34472 -65.11647,26.34472c-24.59444,0 -47.7233,-9.35062 -65.11561,-26.34472c-17.39317,-16.99325 -26.9785,-39.58863 -26.9785,-63.62516c0,-24.02979 9.58533,-46.62601 26.9785,-63.61926s40.52117,-26.35145 65.11561,-26.35145c24.59531,0 47.72416,9.3582 65.11647,26.35145c17.39403,16.99325 26.96557,39.58863 26.96557,63.61926c0,24.03653 -9.57068,46.63275 -26.96557,63.62516z"/>
   <path stroke="null" fill="#CCD1D9" d="m13.20171,218.49664l128.65794,0c5.0757,0 9.19416,-4.02461 9.19416,-8.9836s-4.11932,-8.97687 -9.19416,-8.97687l-128.65794,0c-5.07484,0 -9.19416,4.01787 -9.19416,8.97687s4.11932,8.9836 9.19416,8.9836z"/>
   <path stroke="null" fill="#E6E9ED" d="m178.62422,254.40328l-128.67,0c-5.07484,0 -9.18124,4.02461 -9.18124,8.98276c0,4.959 4.1064,8.9836 9.18124,8.9836l128.67086,0c5.07484,0 9.18124,-4.02461 9.18124,-8.9836c-0.00086,-4.95731 -4.1064,-8.98276 -9.1821,-8.98276z"/>
   <path stroke="null" fill="#AAB2BC" d="m151.0538,308.27543l-137.8521,0c-5.07484,0 -9.19416,4.02461 -9.19416,8.9836s4.11932,8.98276 9.19416,8.98276l137.8521,0c5.0757,0 9.18124,-4.02377 9.18124,-8.98276s-4.10554,-8.9836 -9.18124,-8.9836z"/>
   <g stroke="null">
    <path stroke="null" fill="#f7a52f" d="m169.4292,344.19554c-5.07484,0 -9.18037,4.02461 -9.18037,8.9836l-0.01379,71.82589c0,4.959 4.11932,8.9836 9.19416,8.9836c5.0757,0 9.19502,-4.02461 9.19502,-8.9836l0,-71.82589c0,-4.959 -4.11932,-8.9836 -9.19502,-8.9836z"/>
    <path stroke="null" fill="#f7a52f" d="m169.4292,92.79102l0,0c5.0757,0 9.19502,-4.01787 9.19502,-8.9836l0,-71.82589c0,-4.959 -4.11932,-8.97687 -9.19502,-8.97687l0,0c-5.07484,0 -9.19416,4.01787 -9.19416,8.97687l0,71.82589c0.00086,4.959 4.12018,8.9836 9.19416,8.9836z"/>
   </g>
   <g stroke="null">
    <path stroke="null" fill="#f7a52f" d="m260.4084,307.38229c-3.58082,3.49765 -3.58082,9.19321 0,12.6917l51.99082,50.79625c3.58082,3.51196 9.39664,3.51196 12.99124,0s3.59461,-9.19405 0,-12.69254l-51.97876,-50.79541c-3.59547,-3.51196 -9.42335,-3.51196 -13.00331,0z"/>
    <path stroke="null" fill="#f7a52f" d="m78.45431,129.61184c0,-0.00673 0,0 0,-0.00673c3.59374,-3.50522 3.59374,-9.18732 0,-12.69254l-51.99168,-50.79541c-3.58082,-3.50522 -9.41042,-3.50522 -12.99124,0l0,0c-3.59374,3.50522 -3.59374,9.19321 0,12.69843l51.99082,50.79541c3.58082,3.50606 9.39664,3.50606 12.9921,0.00084z"/>
   </g>
   <path stroke="null" fill="#f7a52f" d="m298.08714,218.48991c0,4.959 4.11932,8.97687 9.19502,8.97687l73.51537,0.00673c5.0757,0 9.19502,-4.02461 9.19502,-8.9836s-4.11932,-8.97687 -9.18124,-8.97687l-73.52916,0c-5.07484,0 -9.19502,4.01871 -9.19502,8.97687z"/>
   <path stroke="null" fill="#f7a52f" d="m260.4084,129.6051c3.58082,3.50522 9.39491,3.50522 13.00331,0l51.97876,-50.78867c3.59461,-3.50522 3.59461,-9.19405 0,-12.69843c-3.59461,-3.50522 -9.41042,-3.50522 -12.99124,0l-51.99082,50.78867c-3.58168,3.50438 -3.59461,9.19321 0,12.69843z"/>
   <g stroke="null"/>
   <g stroke="null"/>
   <g stroke="null"/>
   <g stroke="null"/>
   <g stroke="null"/>
   <g stroke="null"/>
   <g stroke="null"/>
   <g stroke="null"/>
   <g stroke="null"/>
   <g stroke="null"/>
   <g stroke="null"/>
   <g stroke="null"/>
   <g stroke="null"/>
   <g stroke="null"/>
   <g stroke="null"/>
  </g>
 </g>
</svg>